[Header]
FileType HTR
DataType HTRS
FileVersion 1
NumSegments 64
NumFrames 4
DataFrameRate 24
EulerRotationOrder ZYX
CalibrationUnits mm
RotationUnits Degrees
GlobalAxisofGravity Y
BoneLengthAxis Y
ScaleFactor 1.0
[SegmentNames&Hierarchy]
Hips	GLOBAL
Spine	Hips
Spine1	Spine
Spine2	Spine1
Neck	Spine2
Head	Neck
LeftEye	Head
RightEye	Head
LeftShoulder	Spine2
LeftArm	LeftShoulder
LeftForeArm	LeftArm
LeftHand	LeftForeArm
LeftHandThumb1	LeftHand
LeftHandThumb2	LeftHandThumb1
LeftHandThumb3	LeftHandThumb2
LeftHandThumb4	LeftHandThumb3
LeftHandIndex1	LeftHand
LeftHandIndex2	LeftHandIndex1
LeftHandIndex3	LeftHandIndex2
LeftHandIndex4	LeftHandIndex3
LeftHandMiddle1	LeftHand
LeftHandMiddle2	LeftHandMiddle1
LeftHandMiddle3	LeftHandMiddle2
LeftHandMiddle4	LeftHandMiddle3
LeftHandRing1	LeftHand
LeftHandRing2	LeftHandRing1
LeftHandRing3	LeftHandRing2
LeftHandRing4	LeftHandRing3
LeftHandPinky1	LeftHand
LeftHandPinky2	LeftHandPinky1
LeftHandPinky3	LeftHandPinky2
LeftHandPinky4	LeftHandPinky3
RightShoulder	Spine2
RightArm	RightShoulder
RightForeArm	RightArm
RightHand	RightForeArm
RightHandPinky1	RightHand
RightHandPinky2	RightHandPinky1
RightHandPinky3	RightHandPinky2
RightHandPinky4	RightHandPinky3
RightHandRing1	RightHand
RightHandRing2	RightHandRing1
RightHandRing3	RightHandRing2
RightHandRing4	RightHandRing3
RightHandMiddle1	RightHand
RightHandMiddle2	RightHandMiddle1
RightHandMiddle3	RightHandMiddle2
RightHandMiddle4	RightHandMiddle3
RightHandIndex1	RightHand
RightHandIndex2	RightHandIndex1
RightHandIndex3	RightHandIndex2
RightHandIndex4	RightHandIndex3
RightHandThumb1	RightHand
RightHandThumb2	RightHandThumb1
RightHandThumb3	RightHandThumb2
RightHandThumb4	RightHandThumb3
LeftUpLeg	Hips
LeftLeg	LeftUpLeg
LeftFoot	LeftLeg
LeftToeBase	LeftFoot
RightUpLeg	Hips
RightLeg	RightUpLeg
RightFoot	RightLeg
RightToeBase	RightFoot
[BasePosition]
Hips	0	0	0	0	0	0	1
Spine	0	0	0	0	0	0	1
Spine1	0	0	0	0	0	0	1
Spine2	0	0	0	0	0	0	1
Neck	0	0	0	0	0	0	1
Head	0	0	0	0	0	0	1
LeftEye	0	0	0	0	0	0	1
RightEye	0	0	0	0	0	0	1
LeftShoulder	0	0	0	0	0	0	1
LeftArm	0	0	0	0	0	0	1
LeftForeArm	0	0	0	0	0	0	1
LeftHand	0	0	0	0	0	0	1
LeftHandThumb1	0	0	0	0	0	0	1
LeftHandThumb2	0	0	0	0	0	0	1
LeftHandThumb3	0	0	0	0	0	0	1
LeftHandThumb4	0	0	0	0	0	0	1
LeftHandIndex1	0	0	0	0	0	0	1
LeftHandIndex2	0	0	0	0	0	0	1
LeftHandIndex3	0	0	0	0	0	0	1
LeftHandIndex4	0	0	0	0	0	0	1
LeftHandMiddle1	0	0	0	0	0	0	1
LeftHandMiddle2	0	0	0	0	0	0	1
LeftHandMiddle3	0	0	0	0	0	0	1
LeftHandMiddle4	0	0	0	0	0	0	1
LeftHandRing1	0	0	0	0	0	0	1
LeftHandRing2	0	0	0	0	0	0	1
LeftHandRing3	0	0	0	0	0	0	1
LeftHandRing4	0	0	0	0	0	0	1
LeftHandPinky1	0	0	0	0	0	0	1
LeftHandPinky2	0	0	0	0	0	0	1
LeftHandPinky3	0	0	0	0	0	0	1
LeftHandPinky4	0	0	0	0	0	0	1
RightShoulder	0	0	0	0	0	0	1
RightArm	0	0	0	0	0	0	1
RightForeArm	0	0	0	0	0	0	1
RightHand	0	0	0	0	0	0	1
RightHandPinky1	0	0	0	0	0	0	1
RightHandPinky2	0	0	0	0	0	0	1
RightHandPinky3	0	0	0	0	0	0	1
RightHandPinky4	0	0	0	0	0	0	1
RightHandRing1	0	0	0	0	0	0	1
RightHandRing2	0	0	0	0	0	0	1
RightHandRing3	0	0	0	0	0	0	1
RightHandRing4	0	0	0	0	0	0	1
RightHandMiddle1	0	0	0	0	0	0	1
RightHandMiddle2	0	0	0	0	0	0	1
RightHandMiddle3	0	0	0	0	0	0	1
RightHandMiddle4	0	0	0	0	0	0	1
RightHandIndex1	0	0	0	0	0	0	1
RightHandIndex2	0	0	0	0	0	0	1
RightHandIndex3	0	0	0	0	0	0	1
RightHandIndex4	0	0	0	0	0	0	1
RightHandThumb1	0	0	0	0	0	0	1
RightHandThumb2	0	0	0	0	0	0	1
RightHandThumb3	0	0	0	0	0	0	1
RightHandThumb4	0	0	0	0	0	0	1
LeftUpLeg	0	0	0	0	0	0	1
LeftLeg	0	0	0	0	0	0	1
LeftFoot	0	0	0	0	0	0	1
LeftToeBase	0	0	0	0	0	0	1
RightUpLeg	0	0	0	0	0	0	1
RightLeg	0	0	0	0	0	0	1
RightFoot	0	0	0	0	0	0	1
RightToeBase	0	0	0	0	0	0	1
[Hips]
14	-2486.661377	949.074646	9.976733208	23.8017025	-77.79957581	-2.974065542	1.0
15	-2677.840576	937.1320801	8.971858978	21.69401741	-79.34302521	-1.728278518	1.0
16	-2854.440918	923.1627808	7.854821682	24.98610115	-79.97317505	-5.002688885	1.0
17	-3028.390869	908.8247681	6.717391014	29.25996208	-80.43727875	-9.098953247	1.0
[Spine]
14	0	101.8159943	1.315000057	6.820190907	0.9369575977	-0.142703861	1.0
15	0	101.8159943	1.315000057	7.307606697	3.206237793	-1.272669435	1.0
16	0	101.8159943	1.315000057	8.037919998	6.682855606	-1.001789808	1.0
17	0	101.8159943	1.315000057	8.812397003	10.37899017	-0.4762111306	1.0
[Spine1]
14	0	100.8349991	-10.00800037	2.728441	0.7105301023	-0.514215529	1.0
15	0	100.8349991	-10.00800037	2.838391542	1.633985877	-0.8314860463	1.0
16	0	100.8349991	-10.00800037	3.128018141	2.918529749	-0.9743528962	1.0
17	0	100.8349991	-10.00800037	3.450313091	4.268725872	-1.085509896	1.0
[Spine2]
14	0	91	-13.73399925	2.722157478	0.7241262197	-0.5224140286	1.0
15	0	91	-13.73399925	2.829418182	1.638870239	-0.8474166989	1.0
16	0	91	-13.73399925	3.119115353	2.916079521	-1.007114172	1.0
17	0	91	-13.73399925	3.441982746	4.259191513	-1.136756063	1.0
[Neck]
14	0	166.7169952	-25.16200066	-2.165516376	10.29813576	0.2628356814	1.0
15	0	166.7169952	-25.16200066	-1.750848651	9.382587433	0.651899755	1.0
16	0	166.7169952	-25.16200066	-1.970241547	8.292422295	1.026968002	1.0
17	0	166.7169952	-25.16200066	-2.304918289	7.170509338	1.399491668	1.0
[Head]
14	0	96.17900085	16.84999847	-40.43693542	46.71346664	-42.53256989	1.0
15	0	96.17900085	16.84999847	-38.94384384	44.11339569	-40.09693909	1.0
16	0	96.17900085	16.84999847	-38.23318481	40.73869705	-39.37933731	1.0
17	0	96.17900085	16.84999847	-37.66478348	37.22315216	-38.97410583	1.0
[LeftEye]
14	30.6760006	64.09500122	92.83599854	0	0	0	1.0
15	30.6760006	64.09500122	92.83599854	0	0	0	1.0
16	30.6760006	64.09500122	92.83599854	0	0	0	1.0
17	30.6760006	64.09500122	92.83599854	0	0	0	1.0
[RightEye]
14	-30.6760006	64.09500122	92.83499908	0	0	0	1.0
15	-30.6760006	64.09500122	92.83499908	0	0	0	1.0
16	-30.6760006	64.09500122	92.83499908	0	0	0	1.0
17	-30.6760006	64.09500122	92.83499908	0	0	0	1.0
[LeftShoulder]
14	45.70400238	109.4599991	-26.28000069	0.6981655955	-0.6408454776	-11.2220211	1.0
15	45.70400238	109.4599991	-26.28000069	0.7042692304	-0.4589228332	-11.79997063	1.0
16	45.70400238	109.4599991	-26.28000069	0.4668082595	0.7677294016	-12.07266426	1.0
17	45.70400238	109.4599991	-26.28000069	0.1850627363	2.184332371	-12.28985596	1.0
[LeftArm]
14	105.923996	-5.24600029	-22.32099915	9.42285347	-18.99934578	-29.98365402	1.0
15	105.923996	-5.24600029	-22.32099915	11.10981178	-11.77335739	-35.48128891	1.0
16	105.923996	-5.24600029	-22.32099915	11.74503517	-3.713854074	-40.42299652	1.0
17	105.923996	-5.24600029	-22.32099915	12.18903351	4.497196674	-45.2636261	1.0
[LeftForeArm]
14	278.414978	-0.0009999999311	0	6.128089444e-05	-85.44803619	-0.0004053363227	1.0
15	278.414978	-0.0009999999311	0	-1.636661e-05	-81.86440277	-0.0002515300002	1.0
16	278.414978	-0.0009999999311	0	-7.091190128e-06	-71.57644653	-0.0002255025902	1.0
17	278.414978	-0.0009999999311	0	1.79883973e-05	-60.06951904	-0.0002227076911	1.0
[LeftHand]
14	283.2879944	0	0	12.31568432	-13.85898113	12.69304466	1.0
15	283.2879944	0	0	13.12061691	-14.59114265	18.61694145	1.0
16	283.2879944	0	0	17.4990654	-13.47587872	12.57821846	1.0
17	283.2879944	0	0	22.52724457	-12.02471924	4.364474773	1.0
[LeftHandThumb1]
14	24.6609993	-15.75	26.8239994	-5.376007557	-11.38402367	-7.059078693	1.0
15	24.6609993	-15.75	26.8239994	-5.569202423	-11.96930218	-7.210706711	1.0
16	24.6609993	-15.75	26.8239994	-5.311486244	-11.19535923	-7.005533695	1.0
17	24.6609993	-15.75	26.8239994	-4.971786499	-10.17428589	-6.735487461	1.0
[LeftHandThumb2]
14	32.29800034	-18.64699936	18.64699936	5.307548046	2.921028376	14.94962788	1.0
15	32.29800034	-18.64699936	18.64699936	5.211168289	2.363942862	14.82073593	1.0
16	32.29800034	-18.64699936	18.64699936	5.341088295	3.102634668	14.98807049	1.0
17	32.29800034	-18.64699936	18.64699936	5.512153625	4.076922417	15.20926571	1.0
[LeftHandThumb3]
14	26.52600098	-15.31499958	15.31499958	-32.88273621	-29.52942657	24.34264755	1.0
15	26.52600098	-15.31499958	15.31499958	-33.10165787	-29.89583969	24.4736824	1.0
16	26.52600098	-15.31499958	15.31499958	-32.81386566	-29.41013527	24.30179787	1.0
17	26.52600098	-15.31499958	15.31499958	-32.43393707	-28.76950073	24.07483673	1.0
[LeftHandThumb4]
14	19.54599953	-11.28499985	11.28499985	0	0	0	1.0
15	19.54599953	-11.28499985	11.28499985	0	0	0	1.0
16	19.54599953	-11.28499985	11.28499985	0	0	0	1.0
17	19.54599953	-11.28499985	11.28499985	0	0	0	1.0
[LeftHandIndex1]
14	91.09299469	-5.170999527	22.60099792	-0.7638862729	-3.230835199	-16.69566154	1.0
15	91.09299469	-5.170999527	22.60099792	-0.2593635023	-3.818570375	-8.114161491	1.0
16	91.09299469	-5.170999527	22.60099792	-0.06721109152	-4.207239151	-4.112388134	1.0
17	91.09299469	-5.170999527	22.60099792	0.06814668328	-4.559713364	-0.9432919025	1.0
[LeftHandIndex2]
14	36.76399994	0	0	-0.01328819804	0.3938119411	-3.863119125	1.0
15	36.76399994	0	0	-0.0004828820238	0.07353205234	-0.7208151817	1.0
16	36.76399994	0	0	0.0001142457477	0.07408969104	-0.7260736227	1.0
17	36.76399994	0	0	-0.001508297282	0.1329814196	-1.303616166	1.0
[LeftHandIndex3]
14	28.83100128	0	0	-0.1416223347	-1.278764248	12.63865852	1.0
15	28.83100128	0	0	-0.1964668483	-1.502512336	14.89818764	1.0
16	28.83100128	0	0	-0.1844398975	-1.455470204	14.42191315	1.0
17	28.83100128	0	0	-0.1602544934	-1.359193444	13.4482193	1.0
[LeftHandIndex4]
14	23.92700005	0	0	0	0	0	1.0
15	23.92700005	0	0	0	0	0	1.0
16	23.92700005	0	0	0	0	0	1.0
17	23.92700005	0	0	0	0	0	1.0
[LeftHandMiddle1]
14	95.33399963	0	0	-1.315328836	-0.8185242414	-23.05357742	1.0
15	95.33399963	0	0	-0.6840130091	-0.1949220449	-14.21588802	1.0
16	95.33399963	0	0	-0.4427791238	0.2839131951	-10.25345802	1.0
17	95.33399963	0	0	-0.2724692523	0.7364271879	-7.177440166	1.0
[LeftHandMiddle2]
14	36.98199844	0	0	-0.4720185101	2.300412893	-23.18844795	1.0
15	36.98199844	0	0	-0.1817531437	1.446099162	-14.32638645	1.0
16	36.98199844	0	0	-0.09625546634	1.054655075	-10.38860798	1.0
17	36.98199844	0	0	-0.04798829928	0.7473689318	-7.34615469	1.0
[LeftHandMiddle3]
14	29.50900078	0	0	-0.1944854707	-1.495084524	14.82281685	1.0
15	29.50900078	0	0	-0.197178632	-1.505249023	14.92600632	1.0
16	29.50900078	0	0	-0.1894494593	-1.475515604	14.62464333	1.0
17	29.50900078	0	0	-0.1798253208	-1.43852818	14.24972439	1.0
[LeftHandMiddle4]
14	28.3390007	0	0	0	0	0	1.0
15	28.3390007	0	0	0	0	0	1.0
16	28.3390007	0	0	0	0	0	1.0
17	28.3390007	0	0	0	0	0	1.0
[LeftHandRing1]
14	91.04499817	-0.4390000105	-18.65100098	-1.156980991	2.941700459	-20.67656326	1.0
15	91.04499817	-0.4390000105	-18.65100098	-0.5158665776	5.440516949	-11.40294075	1.0
16	91.04499817	-0.4390000105	-18.65100098	-0.2745537758	7.413908958	-7.491888523	1.0
17	91.04499817	-0.4390000105	-18.65100098	-0.1059321463	9.291769981	-4.555849552	1.0
[LeftHandRing2]
14	31.54000092	0	0	-1.263139963	3.626063824	-38.40096283	1.0
15	31.54000092	0	0	-0.7528101206	2.867995501	-29.40989304	1.0
16	31.54000092	0	0	-0.5783939362	2.537202597	-25.7293129	1.0
17	31.54000092	0	0	-0.4650530815	2.284096003	-23.0142765	1.0
[LeftHandRing3]
14	29.37700081	0	0	-0.1401025355	-1.271978498	12.570508	1.0
15	29.37700081	0	0	-0.1971902251	-1.505252004	14.92600441	1.0
16	29.37700081	0	0	-0.1803598702	-1.437910795	14.24523544	1.0
17	29.37700081	0	0	-0.15008986	-1.315912366	13.01241875	1.0
[LeftHandRing4]
14	26.47500038	0	0	0	0	0	1.0
15	26.47500038	0	0	0	0	0	1.0
16	26.47500038	0	0	0	0	0	1.0
17	26.47500038	0	0	0	0	0	1.0
[LeftHandPinky1]
14	80.77799988	-4.887000084	-38.06099701	-2.499322891	4.896253586	-22.89409447	1.0
15	80.77799988	-4.887000084	-38.06099701	-1.91820085	10.11292839	-13.12167645	1.0
16	80.77799988	-4.887000084	-38.06099701	-1.664260864	15.04117584	-9.519786835	1.0
17	80.77799988	-4.887000084	-38.06099701	-1.469808698	19.91698265	-7.039809227	1.0
[LeftHandPinky2]
14	36	0	0	-1.847983241	4.259560585	-46.89085007	1.0
15	36	0	0	-1.20843637	3.556105852	-37.52770615	1.0
16	36	0	0	-1.014614224	3.296349049	-34.33474731	1.0
17	36	0	0	-0.9018329382	3.117264271	-32.26364136	1.0
[LeftHandPinky3]
14	21.14200211	0	0	-0.009239672683	-0.328545332	3.222049475	1.0
15	21.14200211	0	0	-0.1029989421	-1.092418194	10.77253056	1.0
16	21.14200211	0	0	-0.137902379	-1.281877041	12.66373444	1.0
17	21.14200211	0	0	-0.1621047705	-1.366897106	13.52597713	1.0
[LeftHandPinky4]
14	19.75699997	0	0	0	0	0	1.0
15	19.75699997	0	0	0	0	0	1.0
16	19.75699997	0	0	0	0	0	1.0
17	19.75699997	0	0	0	0	0	1.0
[RightShoulder]
14	-45.70000076	109.4620056	-26.28000069	3.360533237	14.93510723	10.83787441	1.0
15	-45.70000076	109.4620056	-26.28000069	3.638753891	15.24395275	12.13330078	1.0
16	-45.70000076	109.4620056	-26.28000069	3.828769445	15.29364777	13.16946602	1.0
17	-45.70000076	109.4620056	-26.28000069	4.002747536	15.29622459	14.15849304	1.0
[RightArm]
14	-105.9280014	-5.248000145	-22.32099915	-12.10542202	-27.63410568	63.82844162	1.0
15	-105.9280014	-5.248000145	-22.32099915	-8.369582176	-22.47659111	61.91298294	1.0
16	-105.9280014	-5.248000145	-22.32099915	-6.511063576	-14.53098869	56.39826202	1.0
17	-105.9280014	-5.248000145	-22.32099915	-4.99387598	-6.07846117	50.22912979	1.0
[RightForeArm]
14	-278.414978	0	0	-1.240700129e-07	16.06029892	-2.717425218e-07	1.0
15	-278.414978	0	0	3.480329497e-06	24.15148735	-1.412619622e-05	1.0
16	-278.414978	0	0	8.104118933e-06	42.59817505	7.023116268e-06	1.0
17	-278.414978	0	0	1.352031268e-05	65.23537445	-4.999237262e-06	1.0
[RightHand]
14	-283.2879944	0	0.0009999999311	62.07619095	-16.14865494	25.37858582	1.0
15	-283.2879944	0	0.0009999999311	53.31923294	-27.7559166	26.94124985	1.0
16	-283.2879944	0	0.0009999999311	36.75699997	-30.67781067	23.94987869	1.0
17	-283.2879944	0	0.0009999999311	18.77562714	-32.02054977	20.1305027	1.0
[RightHandPinky1]
14	-80.76699829	-4.885000229	-38.06000137	-3.874503374	-3.610741377	49.24032211	1.0
15	-80.76699829	-4.885000229	-38.06000137	-4.429822922	-3.657846451	57.81461334	1.0
16	-80.76699829	-4.885000229	-38.06000137	-4.445714951	-3.666514158	58.10276031	1.0
17	-80.76699829	-4.885000229	-38.06000137	-4.363529205	-3.66819334	56.88432693	1.0
[RightHandPinky2]
14	-36	0	0.0009999999311	-3.346769094	-4.449385643	73.90765381	1.0
15	-36	0	0.0009999999311	-4.0244174	-4.590772152	82.49038696	1.0
16	-36	0	0.0009999999311	-4.046765327	-4.597774029	82.77878571	1.0
17	-36	0	0.0009999999311	-3.949967384	-4.580342293	81.55912781	1.0
[RightHandPinky3]
14	-21.14200211	0	0	-0.3748600185	-1.826803684	23.19044685	1.0
15	-21.14200211	0	0	-0.6933567524	-2.439223528	31.73163795	1.0
16	-21.14200211	0	0	-0.7020516396	-2.460898399	32.01853561	1.0
17	-21.14200211	0	0	-0.6544187665	-2.375165701	30.80465126	1.0
[RightHandPinky4]
14	-19.75699997	0	0	0	0	0	1.0
15	-19.75699997	0	0	0	0	0	1.0
16	-19.75699997	0	0	0	0	0	1.0
17	-19.75699997	0	0	0	0	0	1.0
[RightHandRing1]
14	-91.03599548	-0.4390000105	-18.65100098	-2.464660406	-2.338197947	39.4499588	1.0
15	-91.03599548	-0.4390000105	-18.65100098	-2.9695189	-2.467455626	45.43593979	1.0
16	-91.03599548	-0.4390000105	-18.65100098	-2.986023664	-2.476843357	45.63704681	1.0
17	-91.03599548	-0.4390000105	-18.65100098	-2.91373682	-2.464436293	44.78635406	1.0
[RightHandRing2]
14	-31.54000092	0	0	-2.173864841	-3.9263165	57.93022156	1.0
15	-31.54000092	0	0	-2.597959757	-4.16145277	63.93852234	1.0
16	-31.54000092	0	0	-2.611677408	-4.17034626	64.14041138	1.0
17	-31.54000092	0	0	-2.550781012	-4.138104916	63.28659439	1.0
[RightHandRing3]
14	-29.37700081	0	0	-0.01913155057	-0.4208984673	5.203923702	1.0
15	-29.37700081	0	0	-0.08799760044	-0.8994005919	11.17613697	1.0
16	-29.37700081	0	0	-0.08920866251	-0.9156569242	11.37683296	1.0
17	-29.37700081	0	0	-0.07811880857	-0.8478686213	10.528162	1.0
[RightHandRing4]
14	-26.47500038	0	0	0	0	0	1.0
15	-26.47500038	0	0	0	0	0	1.0
16	-26.47500038	0	0	0	0	0	1.0
17	-26.47500038	0	0	0	0	0	1.0
[RightHandMiddle1]
14	-95.32500458	0	0	-2.33798027	1.599529266	38.04584503	1.0
15	-95.32500458	0	0	-2.731365681	1.622628689	42.7677269	1.0
16	-95.32500458	0	0	-2.744288445	1.616289616	42.92671204	1.0
17	-95.32500458	0	0	-2.68803668	1.604598045	42.25608063	1.0
[RightHandMiddle2]
14	-36.98199844	0	0	-1.044481158	-2.931429625	39.21556091	1.0
15	-36.98199844	0	0	-1.302432179	-3.221369505	44.01917648	1.0
16	-36.98199844	0	0	-1.310572386	-3.231604576	44.18066788	1.0
17	-36.98199844	0	0	-1.273292422	-3.190984249	43.4981308	1.0
[RightHandMiddle3]
14	-29.50900078	0	0	-0.01313800551	0.3469413221	-4.312648773	1.0
15	-29.50900078	0	0	-0.0002118987759	0.04207028821	-0.544349432	1.0
16	-29.50900078	0	0	0.0006684411783	0.03180256486	-0.417262733	1.0
17	-29.50900078	0	0	-0.0006413583178	0.07509907335	-0.9522147179	1.0
[RightHandMiddle4]
14	-28.3390007	0	0.0009999999311	0	0	0	1.0
15	-28.3390007	0	0.0009999999311	0	0	0	1.0
16	-28.3390007	0	0.0009999999311	0	0	0	1.0
17	-28.3390007	0	0.0009999999311	0	0	0	1.0
[RightHandIndex1]
14	-91.08300018	-5.167999744	22.60099792	-1.635709643	3.464401245	29.44196129	1.0
15	-91.08300018	-5.167999744	22.60099792	-1.955897808	3.423871994	33.41915512	1.0
16	-91.08300018	-5.167999744	22.60099792	-1.966724634	3.416483879	33.55294037	1.0
17	-91.08300018	-5.167999744	22.60099792	-1.921303749	3.415121078	32.98792267	1.0
[RightHandIndex2]
14	-36.76399994	0	0	-0.1902171522	-1.314876318	16.46261597	1.0
15	-36.76399994	0	0	-0.2953323126	-1.628783584	20.55325699	1.0
16	-36.76399994	0	0	-0.2983719409	-1.639508724	20.69077682	1.0
17	-36.76399994	0	0	-0.2828524113	-1.59510994	20.10954285	1.0
[RightHandIndex3]
14	-28.83100128	0	0	-0.0001422867208	0.03682318702	-0.4546704888	1.0
15	-28.83100128	0	0	-0.009040470235	-0.2893955708	3.575378895	1.0
16	-28.83100128	0	0	-0.008828526363	-0.3003763556	3.710818291	1.0
17	-28.83100128	0	0	-0.006960195024	-0.2540411353	3.138146877	1.0
[RightHandIndex4]
14	-23.92700005	0	0	0	0	0	1.0
15	-23.92700005	0	0	0	0	0	1.0
16	-23.92700005	0	0	0	0	0	1.0
17	-23.92700005	0	0	0	0	0	1.0
[RightHandThumb1]
14	-24.64799881	-15.72700024	26.82600021	-2.283237457	1.820905685	4.115339756	1.0
15	-24.64799881	-15.72700024	26.82600021	-0.7804644704	-2.18837142	2.860290051	1.0
16	-24.64799881	-15.72700024	26.82600021	-0.7282566428	-2.322393417	2.82101512	1.0
17	-24.64799881	-15.72700024	26.82600021	-0.9397879839	-1.751823425	3.002790213	1.0
[RightHandThumb2]
14	-32.29800034	-18.64699936	18.64699936	8.720828056	-15.71966362	-18.91775131	1.0
15	-32.29800034	-18.64699936	18.64699936	9.68046093	-19.5236969	-20.08192825	1.0
16	-32.29800034	-18.64699936	18.64699936	9.709733963	-19.65338326	-20.11293793	1.0
17	-32.29800034	-18.64699936	18.64699936	9.569850922	-19.1150074	-19.9379158	1.0
[RightHandThumb3]
14	-26.52600098	-15.31399918	15.31399918	-25.18828201	16.55027008	-21.46135139	1.0
15	-26.52600098	-15.31399918	15.31399918	-23.98843002	13.93879318	-20.95650291	1.0
16	-26.52600098	-15.31399918	15.31399918	-23.94746017	13.85148239	-20.93652153	1.0
17	-26.52600098	-15.31399918	15.31399918	-24.11719894	14.2231102	-21.00469589	1.0
[RightHandThumb4]
14	-19.54599953	-11.28499985	11.28499985	0	0	0	1.0
15	-19.54599953	-11.28499985	11.28499985	0	0	0	1.0
16	-19.54599953	-11.28499985	11.28499985	0	0	0	1.0
17	-19.54599953	-11.28499985	11.28499985	0	0	0	1.0
[LeftUpLeg]
14	82.07800293	-67.51699829	-15.99599934	3.649805784	4.715967655	4.749986172	1.0
15	82.07800293	-67.51699829	-15.99599934	-5.222006321	0.4293543696	3.096694708	1.0
16	82.07800293	-67.51699829	-15.99599934	-24.26804352	-1.292372465	5.068225384	1.0
17	82.07800293	-67.51699829	-15.99599934	-45.16393661	-2.547756195	7.698814392	1.0
[LeftLeg]
14	0	-443.7049866	2.845999956	36.56576538	-10.84641266	2.681756496	1.0
15	0	-443.7049866	2.845999956	65.23408508	-4.879890919	4.211145878	1.0
16	0	-443.7049866	2.845999956	89.39203644	-2.33750391	4.423363686	1.0
17	0	-443.7049866	2.845999956	112.7299194	-0.4176862836	4.396095276	1.0
[LeftFoot]
14	0	-444.2789917	-29.8219986	12.69074631	0.4435660541	-11.46184063	1.0
15	0	-444.2789917	-29.8219986	9.825453758	1.957257509	-8.171373367	1.0
16	0	-444.2789917	-29.8219986	4.374402046	1.121803284	-2.68914032	1.0
17	0	-444.2789917	-29.8219986	-1.546787381	-0.1407684535	3.191595316	1.0
[LeftToeBase]
14	0	-87.28699493	107.1060028	-8.160190582	-1.711643199e-05	9.83787686e-06	1.0
15	0	-87.28699493	107.1060028	-5.840711594	4.308750704e-06	-1.05467916e-05	1.0
16	0	-87.28699493	107.1060028	-6.796480179	9.59117915e-06	-3.278662462e-06	1.0
17	0	-87.28699493	107.1060028	-8.347747803	1.193856133e-05	9.017247976e-06	1.0
[RightUpLeg]
14	-82.07800293	-67.51699829	-15.99599934	-61.95813751	0.07335489243	2.527626753	1.0
15	-82.07800293	-67.51699829	-15.99599934	-60.11495209	-0.04694301262	5.00379467	1.0
16	-82.07800293	-67.51699829	-15.99599934	-54.71154022	-1.094622254	7.318147182	1.0
17	-82.07800293	-67.51699829	-15.99599934	-48.66081238	-2.310916424	9.603078842	1.0
[RightLeg]
14	0	-443.7049866	2.861999989	23.06878853	4.423051357	-1.898820996	1.0
15	0	-443.7049866	2.861999989	32.20065308	6.836247444	2.233766317	1.0
16	0	-443.7049866	2.861999989	43.46299744	4.772078991	4.088787079	1.0
17	0	-443.7049866	2.861999989	55.1126976	1.893844604	5.529705048	1.0
[RightFoot]
14	0	-444.2770081	-29.83799934	-8.463558197	-0.9769215584	6.225708008	1.0
15	0	-444.2770081	-29.83799934	-7.12335825	-0.6709476113	-1.013865352	1.0
16	0	-444.2770081	-29.83799934	-15.65401077	-1.634961605	-5.961498737	1.0
17	0	-444.2770081	-29.83799934	-25.9793644	-2.829882622	-10.49241638	1.0
[RightToeBase]
14	0	-87.28699493	107.1060028	-12.23222065	-8.296555279e-06	-3.687832304e-06	1.0
15	0	-87.28699493	107.1060028	-13.26655197	-5.52063284e-06	7.248813745e-06	1.0
16	0	-87.28699493	107.1060028	-11.77747154	3.118252835e-06	5.183432677e-06	1.0
17	0	-87.28699493	107.1060028	-9.82958889	1.282313224e-05	7.540461411e-07	1.0
[EndOfFile]
